<svg width="25" height="25" viewBox="0 0 25 25" fill="none" xmlns="http://www.w3.org/2000/svg">
<path fill-rule="evenodd" clip-rule="evenodd" d="M24.2284 6.58791L10.7306 20.1437C10.3277 20.5483 9.80407 20.8107 9.23983 20.8923L4.51528 21.5703C4.24194 21.6099 3.96532 21.5173 3.76992 21.3211C3.57452 21.1249 3.48232 20.847 3.52183 20.5725L4.19693 15.8277C4.27707 15.261 4.53944 14.7363 4.94229 14.3305L18.4401 0.774764C19.4687 -0.258254 21.1373 -0.258254 22.1659 0.774764L24.2286 2.84627C25.2572 3.87929 25.257 5.55487 24.2284 6.58791ZM16.3541 5.36419L6.18363 15.5775C6.0497 15.7131 5.96188 15.8873 5.93554 16.0769L5.42618 19.6579L8.9918 19.1463C9.18061 19.1199 9.35407 19.0317 9.48907 18.8972L19.6596 8.68299L16.3553 5.36453L16.3541 5.36419ZM20.9 7.4357L22.9857 5.34102C23.3293 4.99704 23.3293 4.43811 22.9857 4.09413L20.923 2.02262C20.5794 1.67864 20.024 1.67864 19.6804 2.02262L17.5946 4.1173L20.8989 7.43576L20.9 7.4357ZM0.878196 25C0.392982 25 0 24.6053 0 24.118C0 23.6307 0.392982 23.2361 0.878196 23.2361H15.8075C16.2927 23.2361 16.6857 23.6307 16.6857 24.118C16.6857 24.6053 16.2927 25 15.8075 25H0.878196Z" fill="black"/>
</svg>
