<svg width="23" height="20" viewBox="0 0 23 20" fill="none" xmlns="http://www.w3.org/2000/svg">
<path d="M22.6628 9.14808L19.3998 5.73654C19.2951 5.62523 19.1688 5.53654 19.0287 5.47592C18.8887 5.41531 18.7377 5.38405 18.5852 5.38405C18.4327 5.38405 18.2817 5.41531 18.1416 5.47592C18.0016 5.53654 17.8753 5.62523 17.7706 5.73654C17.5539 5.96692 17.4332 6.27169 17.4332 6.58846C17.4332 6.90531 17.5539 7.21008 17.7706 7.44038L19.0665 8.795H14.949C14.6441 8.795 14.3518 8.91662 14.1362 9.133C13.9206 9.34939 13.7995 9.64285 13.7995 9.94885V10.0504C13.7995 10.3565 13.9206 10.6499 14.1362 10.8663C14.3518 11.0827 14.6441 11.2042 14.949 11.2042H19.0649L17.769 12.5588C17.5524 12.7892 17.4316 13.094 17.4316 13.4108C17.4316 13.7276 17.5524 14.0324 17.769 14.2627C17.8738 14.3741 18 14.4627 18.1401 14.5233C18.2802 14.5839 18.4311 14.6152 18.5837 14.6152C18.7362 14.6152 18.8871 14.5839 19.0272 14.5233C19.1673 14.4627 19.2935 14.3741 19.3983 14.2627L22.6613 10.8512C22.8785 10.6214 22.9997 10.3167 23 9.99992C23.0003 9.68316 22.8796 9.37831 22.6628 9.14808ZM14.9383 15.855C13.8236 16.8081 12.4603 17.4207 11.0097 17.6203C9.55911 17.8199 8.08189 17.5982 6.75288 16.9814C5.42386 16.3646 4.29871 15.3785 3.51056 14.1399C2.72241 12.9013 2.30427 11.4619 2.30561 9.99223C2.30696 8.52246 2.72774 7.08385 3.51816 5.84669C4.30858 4.60953 5.43555 3.62554 6.76568 3.01121C8.09585 2.39686 9.57344 2.17788 11.0237 2.38018C12.474 2.58248 13.8361 3.19759 14.949 4.15271C15.1598 4.33706 15.4303 4.43797 15.7098 4.43655C15.9894 4.43514 16.2589 4.33149 16.4678 4.14502C16.5901 4.03333 16.687 3.89665 16.7523 3.74416C16.8174 3.59168 16.8493 3.42695 16.8458 3.26107C16.8422 3.09518 16.8033 2.93198 16.7317 2.78246C16.66 2.63294 16.5572 2.50057 16.4303 2.39425C14.9807 1.15211 13.2064 0.353452 11.3181 0.0930591C9.42992 -0.167333 7.5069 0.121459 5.77723 0.925175C4.04758 1.72889 2.58391 3.0138 1.55991 4.62743C0.535903 6.24108 -0.00546235 8.11569 4.15532e-05 10.0289C0.00555389 11.9421 0.5577 13.8135 1.59098 15.4212C2.62426 17.0289 4.0953 18.3053 5.82955 19.0989C7.56378 19.8926 9.4885 20.1702 11.3752 19.8989C13.262 19.6275 15.0315 18.8186 16.474 17.5681C16.5941 17.4601 16.69 17.3277 16.7556 17.1798C16.8211 17.0318 16.8546 16.8717 16.8541 16.7098C16.8535 16.5479 16.8188 16.388 16.7522 16.2405C16.6857 16.0931 16.5887 15.9614 16.4678 15.8542C16.2564 15.6678 15.9845 15.5649 15.703 15.5649C15.4216 15.5649 15.1497 15.6685 14.9383 15.855Z" fill="black"/>
</svg>
