<svg width="22" height="24" viewBox="0 0 22 24" fill="none" xmlns="http://www.w3.org/2000/svg">
<path d="M11 12.0879C4.62605 12.0879 0 15.1209 0 19.2977C0 23.5122 6.2786 24 11 24C15.7214 24 22 23.5121 22 19.2977C22 15.1197 17.3739 12.0879 11 12.0879ZM11 22.1191C4.95252 22.1191 1.88578 21.1704 1.88578 19.2977C1.88578 16.2599 5.80459 13.9688 11 13.9688C16.1954 13.9688 20.1142 16.26 20.1142 19.2977C20.1142 21.1704 17.0475 22.1191 11 22.1191Z" fill="black"/>
<path d="M11.132 10.4711C14.0269 10.4711 16.3836 8.12296 16.3836 5.23555C16.3836 2.34814 14.0269 0 11.132 0C8.23708 0 5.88046 2.34814 5.88046 5.23555C5.88046 8.12296 8.23708 10.4711 11.132 10.4711ZM11.132 2.09422C12.869 2.09422 14.2829 3.50388 14.2829 5.23555C14.2829 6.96721 12.869 8.37687 11.132 8.37687C9.39505 8.37687 7.98108 6.96721 7.98108 5.23555C7.98108 3.50388 9.39505 2.09422 11.132 2.09422Z" fill="black"/>
</svg>
