<svg width="24" height="23" viewBox="0 0 24 23" fill="none" xmlns="http://www.w3.org/2000/svg">
<path d="M21.9743 12.2066L21.9985 12.231L12.1032 22.181L2.80723 12.8332C0.210801 10.0678 0.268487 5.71899 2.94848 3.02421C5.43127 0.527715 9.32538 0.29445 12.0703 2.35015C14.8198 0.0355488 18.9214 0.177307 21.5053 2.77542C24.0718 5.35608 24.2281 9.44247 21.9743 12.2066ZM12.1234 4.78606L11.5551 4.21465L11.4186 4.0865C9.35481 2.20531 6.16934 2.27346 4.1856 4.26816C2.17557 6.28928 2.13229 9.5517 4.06189 11.6074L12.1032 19.6931L19.5275 12.2278L19.5083 12.2084L20.2145 11.5362L20.2682 11.4831C22.3179 9.42201 22.3179 6.08041 20.2682 4.01937C18.2184 1.95833 14.8952 1.95833 12.8511 4.01362L12.7825 4.0836L12.6756 4.19759L12.1536 4.78366L12.1388 4.76958L12.1234 4.78606Z" fill="black"/>
</svg>
