<svg width="22" height="22" viewBox="0 0 22 22" fill="none" xmlns="http://www.w3.org/2000/svg">
<path fill-rule="evenodd" clip-rule="evenodd" d="M7.7 19.8H4.4C1.9701 19.8 0 17.8299 0 15.4C0 12.2551 0 7.54491 0 4.40001C0 1.9701 1.9701 0 4.4 0C8.0619 0 13.937 0 17.6 0C20.0299 0 22 1.9701 22 4.40001V15.4C22 17.8299 20.0299 19.8 17.6 19.8H12.4333L9.4094 21.8152C9.0728 22.0396 8.6383 22.0616 8.2808 21.8702C7.9233 21.6777 7.7 21.3059 7.7 20.9V19.8ZM19.8 4.40001C19.8 3.18451 18.8144 2.2 17.6 2.2C13.937 2.2 8.0619 2.2 4.4 2.2C3.1845 2.2 2.2 3.18451 2.2 4.40001C2.2 7.54491 2.2 12.2551 2.2 15.4C2.2 16.6144 3.1845 17.6 4.4 17.6C6.4889 17.6 8.8 17.6 8.8 17.6C9.4072 17.6 9.9 18.0928 9.9 18.7V18.8441L11.4895 17.7848C11.6699 17.6638 11.8822 17.6 12.1 17.6C12.1 17.6 15.1019 17.6 17.6 17.6C18.8144 17.6 19.8 16.6144 19.8 15.4C19.8 11.7337 19.8 8.06631 19.8 4.40001ZM11 13.2C11.6072 13.2 12.1 13.6928 12.1 14.3C12.1 14.9072 11.6072 15.4 11 15.4C10.3928 15.4 9.9 14.9072 9.9 14.3C9.9 13.6928 10.3928 13.2 11 13.2ZM9.9 9.90002C9.9 9.29282 10.3928 8.80001 11 8.80001C11.6072 8.80001 12.1 8.30721 12.1 7.70001C12.1 7.09281 11.6072 6.60001 11 6.60001C10.3928 6.60001 9.9 7.09281 9.9 7.70001C9.9 8.30721 9.4072 8.80001 8.8 8.80001C8.1928 8.80001 7.7 8.30721 7.7 7.70001C7.7 5.87841 9.1784 4.40001 11 4.40001C12.8205 4.40001 14.3 5.87841 14.3 7.70001C14.3 9.13552 13.3804 10.3587 12.1 10.8119V11C12.1 11.6072 11.6072 12.1 11 12.1C10.3928 12.1 9.9 11.6072 9.9 11V9.90002Z" fill="black"/>
</svg>
