<svg width="22" height="20" viewBox="0 0 22 20" fill="none" xmlns="http://www.w3.org/2000/svg">
<path d="M12.1237 0.000187713C7.51088 0.000187713 3.616 3.23986 2.55007 7.58258L1.46068 6.08061L0 7.18371L3.01372 11.2917L7.07065 8.24005L5.98126 6.76099L4.38204 7.95854C5.28578 4.46136 8.43897 1.85526 12.1718 1.85526C16.5521 1.85526 20.1688 5.51676 20.1688 10.0006C20.1688 14.4844 16.5519 18.1459 12.1238 18.1459C10.0374 18.1459 8.06689 17.3481 6.58368 15.892L5.30864 17.2298C7.16324 19.0142 9.57375 20 12.1238 20C17.5717 20 22 15.516 22 9.99953C22 4.48404 17.5716 0.000187713 12.1237 0.000187713Z" fill="black"/>
</svg>
