<svg width="23" height="17" viewBox="0 0 23 17" fill="none" xmlns="http://www.w3.org/2000/svg">
<path d="M19.5926 0H3.40741C1.52908 0 0 1.52576 0 3.4V13.6C0 15.4742 1.52908 17 3.40741 17H19.5926C21.4709 17 23 15.4742 23 13.6V3.4C23 1.52576 21.4709 0 19.5926 0ZM3.40741 1.7H19.5926C20.5318 1.7 21.2963 2.46288 21.2963 3.4V3.825H1.7037V3.4C1.7037 2.46288 2.46824 1.7 3.40741 1.7ZM19.5926 15.3H3.40741C2.46824 15.3 1.7037 14.5371 1.7037 13.6V6.8H21.2963V13.6C21.2963 14.5371 20.5318 15.3 19.5926 15.3Z" fill="black"/>
<path d="M9.7963 8.92483H3.83333C3.36267 8.92483 2.98148 9.3052 2.98148 9.77483C2.98148 10.2445 3.36267 10.6248 3.83333 10.6248H9.7963C10.267 10.6248 10.6481 10.2445 10.6481 9.77483C10.6481 9.3052 10.267 8.92483 9.7963 8.92483Z" fill="black"/>
<path d="M7.24074 11.475H3.83333C3.36267 11.475 2.98148 11.8554 2.98148 12.325C2.98148 12.7946 3.36267 13.175 3.83333 13.175H7.24074C7.7114 13.175 8.09259 12.7946 8.09259 12.325C8.09259 11.8554 7.7114 11.475 7.24074 11.475Z" fill="black"/>
<path d="M17.463 8.50018C16.0531 8.50018 14.9074 9.64342 14.9074 11.0502C14.9074 12.4569 16.0531 13.6002 17.463 13.6002C18.8728 13.6002 20.0185 12.4569 20.0185 11.0502C20.0185 9.64342 18.8728 8.50018 17.463 8.50018ZM17.463 11.9002C16.9934 11.9002 16.6111 11.5188 16.6111 11.0502C16.6111 10.5816 16.9934 10.2002 17.463 10.2002C17.9326 10.2002 18.3148 10.5816 18.3148 11.0502C18.3148 11.5188 17.9326 11.9002 17.463 11.9002Z" fill="black"/>
</svg>
