<svg width="20" height="22" viewBox="0 0 20 22" fill="none" xmlns="http://www.w3.org/2000/svg">
<path d="M14.3047 17.1143H18.8604C18.9556 17.1143 19.019 17.1385 19.0928 17.2139C19.1711 17.2939 19.2002 17.3666 19.2002 17.4736V20.8408C19.2002 20.9467 19.171 21.0193 19.0938 21.0986C19.0183 21.1753 18.9539 21.2002 18.8604 21.2002H14.3047C14.1991 21.2001 14.1261 21.1713 14.0459 21.0928H14.0469C13.9663 21.0123 13.9385 20.9421 13.9385 20.8408V17.4736C13.9385 17.3721 13.965 17.3019 14.0449 17.2217C14.1242 17.1429 14.1967 17.1143 14.3047 17.1143ZM8.88867 0.799805C8.92841 0.799809 8.97371 0.803786 9.02539 0.813477L9.20117 0.862305L16.3975 3.53027V3.53125C16.5716 3.60058 16.7092 3.70773 16.8223 3.86719L16.8242 3.87012C16.926 4.01244 16.9775 4.16756 16.9775 4.36133V10.2959C16.9775 10.3297 16.9718 10.3439 16.9707 10.3467C16.9695 10.3495 16.9652 10.359 16.9482 10.376L16.9463 10.3779C16.9216 10.4026 16.8965 10.4201 16.8535 10.4297L16.8037 10.4365C16.1482 10.4724 15.5292 10.5821 14.9512 10.7715L14.7041 10.8584C14.1095 11.081 13.5473 11.4275 13.0166 11.8799L12.79 12.0811C12.2169 12.6114 11.7577 13.2312 11.418 13.9385C11.0666 14.67 10.8936 15.4662 10.8936 16.3145V20.2334C10.8935 20.3557 10.8659 20.3917 10.8623 20.3965C10.857 20.4036 10.8211 20.4491 10.6826 20.4941C10.1634 20.663 9.64913 20.8416 9.13965 21.0293L9.12012 21.0361L9.10156 21.0449C9.06037 21.0626 9.0256 21.0725 8.99707 21.0791C8.97178 21.0842 8.93698 21.0889 8.88867 21.0889C8.84123 21.0889 8.80591 21.0846 8.7793 21.0791C8.7509 21.0725 8.7166 21.0615 8.67578 21.0439L8.64648 21.0312L8.61523 21.0215L8.16992 20.8623C5.97071 20.0295 4.22593 18.6476 2.91309 16.7061C1.50339 14.6202 0.799805 12.316 0.799805 9.77148V4.36133C0.799805 4.16756 0.851351 4.01246 0.953125 3.87012L0.955078 3.86719C1.06724 3.70899 1.20291 3.60156 1.375 3.53223L8.5752 0.861328L8.57617 0.862305C8.70705 0.815192 8.80908 0.799805 8.88867 0.799805Z" stroke="black" stroke-width="1.6"/>
</svg>
