<svg width="32" height="35" viewBox="0 0 32 35" fill="none" xmlns="http://www.w3.org/2000/svg">
<path d="M14.2217 34.8238C14.0634 34.8238 13.9184 34.809 13.7834 34.781C13.6468 34.7513 13.5118 34.7069 13.3768 34.6492C9.2584 33.2725 6.00005 30.8203 3.60003 27.2912C1.20001 23.7603 0 19.8459 0 15.546V6.93796C0 6.37311 0.160002 5.86585 0.483332 5.41626C0.805003 4.96503 1.22168 4.63729 1.73335 4.43476L13.2884 0.174565C13.6151 0.0576404 13.9251 0 14.2218 0C14.5184 0 14.8285 0.0576404 15.1551 0.174565L26.7102 4.43476C27.2219 4.63732 27.6385 4.96503 27.9602 5.41626C28.2835 5.86585 28.4435 6.37307 28.4435 6.93796V16.3795C28.4435 16.7846 28.3035 17.1272 28.0219 17.4072C27.7402 17.6888 27.3919 17.8436 26.9769 17.8732C25.8819 17.9309 24.8818 18.1285 23.9769 18.4661C23.0735 18.802 22.1919 19.3652 21.3335 20.1541C20.5335 20.8902 19.8952 21.7466 19.4218 22.7265C18.9485 23.7063 18.7101 24.7817 18.7101 25.9543V32.1892C18.7101 33.0093 18.3035 33.5511 17.4885 33.8146C16.6734 34.0781 15.8668 34.3565 15.0668 34.6496C14.9318 34.7072 14.7968 34.7517 14.6601 34.7813C14.5251 34.8093 14.3801 34.8238 14.2217 34.8238ZM22.8883 35C22.3766 35 21.9366 34.8188 21.5699 34.4582C21.2049 34.0959 21.0216 33.6611 21.0216 33.1555V27.7984C21.0216 27.2911 21.2049 26.858 21.5699 26.4957C21.9366 26.1334 22.3766 25.9539 22.8883 25.9539V24.1967C22.8883 23.1576 23.2366 22.2683 23.9333 21.5288C24.6283 20.7894 25.495 20.4205 26.5333 20.4205C27.57 20.4205 28.4283 20.7894 29.11 21.5288C29.7917 22.2683 30.1333 23.1576 30.1333 24.1967V25.9539H30.1767C30.6767 25.9539 31.1067 26.1334 31.4633 26.4957C31.82 26.858 32 27.2911 32 27.7984V33.1555C32 33.6611 31.82 34.0959 31.4633 34.4582C31.1067 34.8188 30.6766 35 30.1767 35H22.8883ZM24.6666 25.9539H28.4V24.1967C28.4 23.6401 28.22 23.1641 27.8617 22.7689C27.5033 22.3736 27.0583 22.176 26.5283 22.176C25.9983 22.176 25.555 22.3737 25.2 22.7689C24.8433 23.1641 24.6666 23.6401 24.6666 24.1967V25.9539Z" fill="black"/>
</svg>
