<svg width="51" height="39" viewBox="0 0 51 39" fill="none" xmlns="http://www.w3.org/2000/svg">
<path d="M10.7644 17.7854C12.1477 17.7284 13.4553 17.1416 14.4139 16.1477C15.3724 15.1538 15.9076 13.8297 15.9076 12.4523C15.9076 11.0749 15.3724 9.75077 14.4139 8.75685C13.4553 7.76293 12.1477 7.17613 10.7644 7.11914C9.38103 7.17613 8.07339 7.76293 7.11485 8.75685C6.15632 9.75077 5.62109 11.0749 5.62109 12.4523C5.62109 13.8297 6.15632 15.1538 7.11485 16.1477C8.07339 17.1416 9.38103 17.7284 10.7644 17.7854ZM10.7644 8.94713C11.6669 8.98046 12.5192 9.3688 13.1342 10.0269C13.7491 10.6849 14.0764 11.5589 14.0441 12.4569C14.0739 13.3533 13.7455 14.2249 13.1308 14.8809C12.5162 15.537 11.6652 15.9241 10.7644 15.9574C9.86186 15.9265 9.0086 15.5404 8.39195 14.8841C7.7753 14.2277 7.44565 13.3548 7.4754 12.4569C7.44562 11.558 7.77498 10.6841 8.39139 10.0263C9.00779 9.36852 9.86104 8.98048 10.7644 8.94713Z" fill="white"/>
<path d="M49.4767 20.0255C49.0955 19.7118 48.6558 19.476 48.1829 19.3317C47.7099 19.1874 47.213 19.1374 46.7205 19.1847C42.3843 19.6142 34.5936 19.1847 31.222 11.2329C30.9965 10.6925 30.6371 10.2176 30.1773 9.85273C29.7175 9.48782 29.1723 9.24474 28.5925 9.14618C28.0128 9.04761 27.4174 9.09677 26.8618 9.28906C26.3063 9.48135 25.8088 9.81051 25.4158 10.2458C25.0208 9.81735 24.5238 9.49467 23.9705 9.30752C23.4172 9.12037 22.8255 9.07477 22.2498 9.17492C21.6742 9.27508 21.1332 9.51776 20.6766 9.88061C20.22 10.2435 19.8625 10.7148 19.6371 11.2512C16.2287 19.1572 8.48406 19.6142 4.13859 19.1847C3.53081 19.1247 2.91749 19.2126 2.35148 19.4409C1.78547 19.6692 1.28375 20.031 0.889559 20.4951C0.495368 20.9593 0.220534 21.5118 0.0887405 22.1051C-0.0430524 22.6984 -0.0278501 23.3147 0.133038 23.9009C0.367069 24.6975 0.866585 25.3912 1.54946 25.8679C2.23235 26.3446 3.05795 26.576 3.89054 26.524L11.332 26.259C10.7685 28.9572 9.61769 31.4998 7.9604 33.708C7.47166 34.2653 7.19406 34.975 7.17561 35.7144C7.15715 36.4537 7.39901 37.1763 7.85934 37.757C8.16124 38.1417 8.54738 38.4528 8.98837 38.6666C9.42936 38.8804 9.91358 38.9913 10.4042 38.9909C11.058 38.9949 11.698 38.8039 12.2416 38.4425C14.5333 36.8607 16.2964 34.6323 17.3036 32.0445L18.893 35.4629C19.2286 36.1842 19.8173 36.7588 20.5486 37.0789C21.2799 37.399 22.1035 37.4425 22.8647 37.2012C23.626 36.96 24.2726 36.4506 24.6831 35.7687C25.0936 35.0868 25.2398 34.2793 25.0942 33.4978L22.6597 20.5922C23.9242 19.4958 24.875 18.0863 25.4158 16.5067C25.9566 18.0863 26.9074 19.4958 28.1719 20.5922L25.7649 33.5069C25.6737 33.9769 25.6891 34.4611 25.8099 34.9244C25.9307 35.3877 26.1538 35.8183 26.4631 36.1849C26.8164 36.6116 27.2728 36.942 27.7896 37.1452C28.3064 37.3483 28.8665 37.4175 29.4175 37.3462C29.9686 37.2749 30.4923 37.0656 30.9397 36.7377C31.3871 36.4099 31.7435 35.9744 31.9753 35.472L33.5647 32.0537C34.5719 34.6414 36.335 36.8698 38.6268 38.4516C39.1704 38.813 39.8104 39.004 40.4642 39C41.0799 38.9992 41.6825 38.8219 42.1997 38.4894C42.7169 38.157 43.1269 37.6834 43.3808 37.1252C43.6347 36.5671 43.7216 35.948 43.6312 35.342C43.5409 34.7361 43.277 34.1688 42.8712 33.708C41.224 31.4961 40.0798 28.9544 39.5179 26.259L46.9594 26.524C47.7386 26.5735 48.5134 26.3747 49.1714 25.9565C49.8294 25.5384 50.3364 24.9226 50.619 24.1985C50.9015 23.4743 50.9449 22.6795 50.7428 21.9292C50.5407 21.1789 50.1037 20.5121 49.495 20.0255H49.4767ZM24.4971 12.869C24.148 15.0717 23.2844 17.9965 21.1438 19.4406C20.9979 19.5399 20.8839 19.6789 20.8155 19.841C20.7471 20.0031 20.7271 20.1814 20.758 20.3546L23.2752 33.8268C23.316 34.0341 23.3101 34.2478 23.2578 34.4524C23.2054 34.6571 23.1081 34.8477 22.9727 35.0104C22.8373 35.173 22.6673 35.3037 22.4749 35.3931C22.2826 35.4824 22.0727 35.5281 21.8604 35.5269C21.5849 35.5256 21.3153 35.4468 21.0828 35.2997C20.8504 35.1525 20.6645 34.9429 20.5467 34.6951L17.9651 29.1198C17.8846 28.9494 17.7531 28.8078 17.5886 28.7146C17.4242 28.6213 17.2348 28.5809 17.0464 28.5988C16.8544 28.6245 16.6755 28.71 16.5352 28.8429C16.395 28.9759 16.3006 29.1496 16.2655 29.3391C15.5706 32.3832 13.7881 35.0726 11.2494 36.907C10.9616 37.0924 10.6152 37.166 10.2764 37.1138C9.93751 37.0615 9.62983 36.8871 9.41195 36.6236C9.21187 36.3816 9.10249 36.0779 9.10249 35.7645C9.10249 35.4511 9.21187 35.1474 9.41195 34.9053C10.7165 33.4247 13.5829 28.087 13.2246 25.1896C13.1975 24.9667 13.0889 24.7615 12.9194 24.6131C12.75 24.4648 12.5316 24.3837 12.3059 24.3853L3.90891 24.6778C3.49174 24.7054 3.07711 24.5949 2.72975 24.3634C2.38238 24.1319 2.12185 23.7925 1.98882 23.3982C1.92623 23.1816 1.90443 22.9554 1.92451 22.731C1.94427 22.4767 2.0155 22.229 2.13391 22.0029C2.25231 21.7767 2.41546 21.5767 2.61354 21.4148C2.81049 21.253 3.03779 21.1317 3.28223 21.0579C3.52668 20.9842 3.78341 20.9595 4.03753 20.9852C8.88829 21.4605 17.5792 20.9304 21.4102 11.9276C21.5698 11.5589 21.8594 11.2611 22.2243 11.09C22.5893 10.919 23.0046 10.8866 23.3919 10.9989C23.7792 11.1113 24.1119 11.3606 24.3273 11.7C24.5427 12.0393 24.6259 12.4454 24.5614 12.8416L24.4971 12.869ZM48.9254 23.4165C48.8041 23.8016 48.5581 24.136 48.2257 24.3675C47.8934 24.599 47.4933 24.7145 47.088 24.696H47.0053L38.6084 24.4036C38.3841 24.4017 38.1668 24.4815 37.9976 24.628C37.8283 24.7744 37.7188 24.9775 37.6897 25.1987C37.3314 28.0961 40.1977 33.4247 41.5023 34.9145C41.7024 35.1565 41.8118 35.4602 41.8118 35.7736C41.8118 36.087 41.7024 36.3907 41.5023 36.6328C41.2844 36.8962 40.9767 37.0707 40.6379 37.1229C40.299 37.1752 39.9527 37.1016 39.6649 36.9161C37.109 35.0895 35.3094 32.3992 34.6028 29.3483C34.5678 29.1587 34.4733 28.985 34.3331 28.8521C34.1928 28.7191 34.0139 28.6337 33.8219 28.6079H33.6841C33.5084 28.6075 33.3362 28.6572 33.1881 28.7512C33.0399 28.8451 32.9219 28.9794 32.8481 29.138L30.2665 34.7134C30.1487 34.9612 29.9628 35.1708 29.7304 35.318C29.4979 35.4651 29.2283 35.5439 28.9528 35.5451C28.7405 35.5464 28.5306 35.5007 28.3383 35.4114C28.1459 35.322 27.9759 35.1913 27.8405 35.0286C27.7051 34.866 27.6078 34.6754 27.5554 34.4707C27.5031 34.266 27.4972 34.0524 27.538 33.8451L30.092 20.3911C30.1229 20.218 30.1029 20.0397 30.0344 19.8776C29.966 19.7155 29.852 19.5764 29.7061 19.4771C27.5656 18.033 26.702 15.1083 26.3529 12.9055C26.2883 12.5093 26.3716 12.1033 26.587 11.764C26.8024 11.4246 27.1351 11.1752 27.5224 11.0629C27.9097 10.9506 28.3249 10.983 28.6899 11.154C29.0549 11.325 29.3444 11.6229 29.504 11.9915C33.335 20.9944 42.0351 21.5245 46.8675 21.0492C47.1228 21.0215 47.381 21.045 47.6269 21.1183C47.8728 21.1916 48.1015 21.3132 48.2994 21.476C48.4972 21.6388 48.6603 21.8393 48.7789 22.0659C48.8974 22.2924 48.9691 22.5403 48.9897 22.7949C49.0043 23.0042 48.9826 23.2145 48.9254 23.4165Z" fill="white"/>
<path d="M40.1143 17.7854C41.185 17.8347 42.246 17.5639 43.1605 17.0077C44.0751 16.4515 44.8012 15.6356 45.2453 14.6651C45.6895 13.6946 45.8312 12.614 45.6523 11.5626C45.4734 10.5112 44.9821 9.53717 44.2416 8.76615C43.5012 7.99512 42.5456 7.4624 41.498 7.23668C40.4505 7.01096 39.3589 7.10257 38.3642 7.4997C37.3694 7.89684 36.5171 8.5813 35.9169 9.46484C35.3168 10.3484 34.9964 11.3905 34.9971 12.4569C34.9699 13.8373 35.4928 15.1724 36.4515 16.1707C37.4102 17.169 38.7269 17.7495 40.1143 17.7854ZM40.1143 8.94714C41.0176 8.9805 41.8709 9.36854 42.4873 10.0263C43.1037 10.6841 43.433 11.5581 43.4032 12.4569C43.4268 12.9005 43.3594 13.3443 43.205 13.7611C43.0506 14.178 42.8125 14.5592 42.5052 14.8815C42.1979 15.2038 41.8278 15.4605 41.4176 15.636C41.0073 15.8114 40.5654 15.9018 40.1189 15.9018C39.6723 15.9018 39.2305 15.8114 38.8202 15.636C38.4099 15.4605 38.0399 15.2038 37.7326 14.8815C37.4253 14.5592 37.1872 14.178 37.0328 13.7611C36.8784 13.3443 36.8109 12.9005 36.8345 12.4569C36.8022 11.5589 37.1295 10.6849 37.7445 10.0269C38.3594 9.36882 39.2118 8.98047 40.1143 8.94714Z" fill="white"/>
<path d="M25.4187 6.39795C25.6624 6.39795 25.896 6.30165 26.0683 6.13024C26.2406 5.95884 26.3374 5.72636 26.3374 5.48395V0.913992C26.3374 0.671586 26.2406 0.439109 26.0683 0.267702C25.896 0.0962955 25.6624 0 25.4187 0C25.175 0 24.9414 0.0962955 24.7691 0.267702C24.5968 0.439109 24.5 0.671586 24.5 0.913992V5.48395C24.5 5.72636 24.5968 5.95884 24.7691 6.13024C24.9414 6.30165 25.175 6.39795 25.4187 6.39795Z" fill="white"/>
<path d="M28.0347 7.53109C28.258 7.53077 28.4735 7.44954 28.641 7.30259L32.031 4.36868C32.1454 4.29866 32.2429 4.20455 32.3168 4.09298C32.3907 3.9814 32.439 3.85508 32.4585 3.72289C32.478 3.59071 32.4681 3.45588 32.4296 3.3279C32.391 3.19993 32.3248 3.08192 32.2354 2.98217C32.1461 2.88243 32.0358 2.80339 31.9125 2.75061C31.7891 2.69784 31.6556 2.67261 31.5214 2.6767C31.3872 2.68079 31.2555 2.71411 31.1356 2.77431C31.0157 2.8345 30.9106 2.92011 30.8275 3.02511L27.4283 5.95902C27.2458 6.11914 27.1346 6.34476 27.1191 6.58638C27.1036 6.82799 27.185 7.06585 27.3456 7.24776C27.4342 7.34027 27.5413 7.41328 27.66 7.46209C27.7786 7.51089 27.9063 7.5344 28.0347 7.53109Z" fill="white"/>
<path d="M22.1854 7.30308C22.3529 7.45003 22.5684 7.53125 22.7917 7.53157C22.9229 7.53027 23.0522 7.50105 23.1711 7.44587C23.2899 7.39069 23.3955 7.31084 23.4808 7.21168C23.6414 7.02977 23.7228 6.79191 23.7073 6.5503C23.6918 6.30869 23.5806 6.08306 23.3981 5.92295L19.9989 3.02559C19.9085 2.94257 19.8022 2.87846 19.6865 2.83706C19.5707 2.79567 19.4477 2.77783 19.3249 2.7846C19.202 2.79138 19.0818 2.82263 18.9713 2.87651C18.8609 2.93039 18.7624 3.00579 18.6818 3.09825C18.6012 3.1907 18.54 3.29832 18.502 3.41473C18.464 3.53114 18.4498 3.65396 18.4604 3.7759C18.471 3.89784 18.5061 4.01643 18.5637 4.12462C18.6212 4.23281 18.7 4.3284 18.7954 4.40572L22.1854 7.30308Z" fill="white"/>
</svg>
