<svg width="155" height="70" viewBox="0 0 155 70" fill="none" xmlns="http://www.w3.org/2000/svg">
<mask id="mask0_2885_9645" style="mask-type:alpha" maskUnits="userSpaceOnUse" x="0" y="0" width="155" height="70">
<rect width="155" height="70" rx="10" fill="#F3F5FF"/>
</mask>
<g mask="url(#mask0_2885_9645)">
<path opacity="0.2" fill-rule="evenodd" clip-rule="evenodd" d="M149.577 55.3614L142.594 57.6835C140.616 58.3414 139.546 60.4806 140.204 62.4611C140.863 64.4415 143.001 65.5139 144.979 64.856L151.962 62.5339L149.577 55.3614ZM141.943 55.7258C138.886 56.7425 137.231 60.0508 138.248 63.1115C139.266 66.1722 142.572 67.8285 145.63 66.8118L148.476 65.8652L150.616 72.3009C150.996 73.4549 150.372 74.701 149.222 75.088L114.008 86.7978C112.855 87.1765 111.61 86.5519 111.222 85.4006L102.341 58.6927C102.659 58.7089 102.976 58.6747 103.283 58.5909L103.341 58.5717L108.74 56.7761L139.931 46.4158L139.929 46.4165C140.964 46.0817 142.077 46.6422 142.427 47.6727L144.79 54.7791L141.943 55.7258ZM128.493 74.9713L114.694 79.5599L115.527 82.066L129.326 77.4753L128.493 74.9713ZM114.007 77.614C112.95 77.9701 112.378 79.1142 112.728 80.1744L113.584 82.7488C113.939 83.8097 115.085 84.3826 116.144 84.0327L130.011 79.4214C131.069 79.0674 131.643 77.9205 131.293 76.8603L130.437 74.2859C130.082 73.2271 128.936 72.6521 127.877 73.002L114.007 77.614ZM144.67 60.1624C145.055 60.3538 145.248 60.7905 145.135 61.2027C145.021 61.6177 144.632 61.8917 144.204 61.8616C143.776 61.8315 143.43 61.5029 143.376 61.0774C143.324 60.6512 143.578 60.2474 143.985 60.112C144.21 60.037 144.457 60.0539 144.67 60.1624ZM143.334 58.1543C144.674 57.7089 146.142 58.2731 146.84 59.5005C147.54 60.7294 147.275 62.2793 146.207 63.2042C145.139 64.1292 143.569 64.171 142.454 63.3031C141.339 62.4351 140.99 60.9012 141.623 59.6379C141.973 58.9356 142.59 58.4018 143.334 58.1543ZM136.062 38.0316L134.683 33.8845L102.468 53.6268L102.432 53.6502L102.432 53.6481C101.835 53.9247 101.405 54.4676 101.272 55.1116C101.255 55.2598 101.263 55.4087 101.295 55.5543L101.393 55.8481C101.482 56.0392 101.607 56.209 101.766 56.3471C102.029 56.5928 102.399 56.6925 102.75 56.6081L107.968 54.873L136.061 38.0297L136.062 38.0316ZM138.311 44.7968L116.929 51.8979L136.726 40.0288L138.311 44.7968ZM136.247 32.0777L138.161 37.8326C138.185 37.8637 138.207 37.8954 138.227 37.9299C138.325 38.0927 138.375 38.2783 138.373 38.47L140.301 44.2704C142.129 44.1592 143.801 45.2877 144.383 47.0247L146.746 54.1289L149.904 53.0785L149.902 53.0792C150.444 52.8991 151.026 53.1927 151.206 53.7329L154.242 62.8629C154.328 63.1216 154.307 63.4043 154.186 63.649C154.064 63.8944 153.849 64.0783 153.589 64.1649L150.432 65.2146L152.572 71.6502C153.308 73.8852 152.102 76.2974 149.873 77.0454L114.659 88.7551C112.424 89.4913 110.016 88.2835 109.266 86.0506L99.4494 56.528C99.2415 56.0065 99.166 55.441 99.2303 54.8818C99.4203 53.5891 100.221 52.47 101.383 51.8747L101.393 51.8713L134.711 31.4496C134.944 31.3078 135.223 31.2633 135.49 31.3263C135.754 31.39 135.984 31.5572 136.126 31.7904C136.181 31.878 136.222 31.9746 136.247 32.0767L136.247 32.0777Z" fill="#A4B3FF"/>
<g opacity="0.2">
<path d="M25.513 70C21.9889 70 18.7072 69.3571 15.6677 68.0714C12.6722 66.7857 10.0732 65.0344 7.87069 62.8176C5.66816 60.5565 3.92816 57.9186 2.65069 54.9037C1.41727 51.8446 0.800564 48.5859 0.800564 45.1278C0.800564 41.6696 1.41727 38.4331 2.65069 35.4183C3.92816 32.3591 5.66816 29.7212 7.87069 27.5044C10.0732 25.2433 12.6722 23.4698 15.6677 22.1841C18.7072 20.8984 21.9889 20.2555 25.513 20.2555C29.037 20.2555 32.2968 20.8984 35.2922 22.1841C38.3317 23.4698 40.9527 25.2433 43.1553 27.5044C45.3578 29.7212 47.0758 32.3591 48.3092 35.4183C49.5867 38.4331 50.2254 41.6696 50.2254 45.1278C50.2254 48.5859 49.5867 51.8446 48.3092 54.9037C47.0758 57.9186 45.3578 60.5565 43.1553 62.8176C40.9527 65.0344 38.3317 66.7857 35.2922 68.0714C32.2968 69.3571 29.037 70 25.513 70ZM25.513 61.4876C27.7155 61.4876 29.7639 61.0886 31.658 60.2905C33.5963 59.4925 35.2702 58.3841 36.6798 56.9653C38.1335 55.5466 39.2568 53.8397 40.0497 51.8446C40.8867 49.8052 41.3051 47.5662 41.3051 45.1278C41.3051 42.6893 40.8867 40.4725 40.0497 38.4774C39.2568 36.438 38.1335 34.7089 36.6798 33.2902C35.2702 31.8714 33.5963 30.763 31.658 29.965C29.7639 29.167 27.7155 28.7679 25.513 28.7679C23.3104 28.7679 21.2401 29.167 19.3018 29.965C17.4077 30.763 15.7337 31.8714 14.2801 33.2902C12.8704 34.7089 11.7472 36.438 10.9102 38.4774C10.1173 40.4725 9.72082 42.6893 9.72082 45.1278C9.72082 47.5662 10.1173 49.8052 10.9102 51.8446C11.7472 53.8397 12.8704 55.5466 14.2801 56.9653C15.7337 58.3841 17.4077 59.4925 19.3018 60.2905C21.2401 61.0886 23.3104 61.4876 25.513 61.4876Z" fill="#A4B3FF"/>
<path d="M60.3175 69.335C58.7316 69.335 57.3661 68.7808 56.2208 67.6724C55.1195 66.5197 54.5689 65.1453 54.5689 63.5492C54.5689 61.9531 55.1195 60.6009 56.2208 59.4925C57.3661 58.3841 58.7316 57.8299 60.3175 57.8299C61.9033 57.8299 63.2468 58.3841 64.3481 59.4925C65.4494 60.6009 66 61.9531 66 63.5492C66 65.1453 65.4494 66.5197 64.3481 67.6724C63.2468 68.7808 61.9033 69.335 60.3175 69.335Z" fill="#A4B3FF"/>
<path d="M-9.49488 19.974C-10.7235 17.3846 -9.63388 14.2832 -7.0612 13.0466L19.0251 0.508391C21.5978 -0.728158 24.6793 0.368486 25.9079 2.95781C27.1365 5.54714 26.0469 8.64862 23.4742 9.88517L-2.61204 22.4234C-5.18472 23.6599 -8.26627 22.5633 -9.49488 19.974Z" fill="#A4B3FF"/>
</g>
</g>
</svg>
