<svg width="43" height="14" viewBox="0 0 43 14" fill="none" xmlns="http://www.w3.org/2000/svg">
<path d="M18.6333 13.798H15.15L17.3287 0.245661H20.8118L18.6333 13.798Z" fill="#00579F"/>
<path d="M31.2606 0.576978C30.5735 0.302765 29.4838 0 28.1363 0C24.6964 0 22.2741 1.84533 22.2593 4.4836C22.2307 6.43011 23.9936 7.51125 25.3121 8.16028C26.6597 8.82349 27.1178 9.25636 27.1178 9.84752C27.1041 10.7554 26.0288 11.1739 25.026 11.1739C23.6353 11.1739 22.8901 10.9582 21.7577 10.4531L21.299 10.2365L20.8116 13.2787C21.6286 13.6532 23.1337 13.9854 24.6964 14C28.3514 14 30.7308 12.1832 30.759 9.37172C30.7729 7.82896 29.8421 6.64684 27.8352 5.68086C26.6169 5.06077 25.8707 4.64265 25.8707 4.00818C25.885 3.4314 26.5018 2.84062 27.8771 2.84062C29.0095 2.81169 29.8415 3.08552 30.4718 3.35954L30.7868 3.50345L31.2606 0.576978Z" fill="#00579F"/>
<path d="M35.8902 8.99691C36.177 8.21834 37.2809 5.20506 37.2809 5.20506C37.2664 5.234 37.5671 4.41213 37.7391 3.90758L37.9826 5.07534C37.9826 5.07534 38.6422 8.31933 38.7854 8.99691C38.2411 8.99691 36.5782 8.99691 35.8902 8.99691ZM40.1899 0.245661H37.4955C36.6647 0.245661 36.0334 0.490556 35.6749 1.37011L30.5009 13.7978H34.1558C34.1558 13.7978 34.7576 12.1252 34.8869 11.7649C35.2879 11.7649 38.8434 11.7649 39.3592 11.7649C39.4592 12.2407 39.7748 13.7978 39.7748 13.7978H43L40.1899 0.245661Z" fill="#00579F"/>
<path d="M12.2406 0.245661L8.8293 9.48708L8.45653 7.61281C7.82585 5.45015 5.84791 3.10047 3.64064 1.93214L6.76526 13.7837H10.4488L15.9239 0.245661H12.2406Z" fill="#00579F"/>
<path d="M5.66162 0.245661H0.0573341L0 0.519491C4.3717 1.64413 7.26699 4.35502 8.45653 7.61338L7.23822 1.38486C7.03765 0.519299 6.42126 0.274213 5.66162 0.245661Z" fill="#FAA61A"/>
</svg>
